<svg width="24" height="18" viewBox="0 0 24 18" fill="none" xmlns="http://www.w3.org/2000/svg">
<path d="M3.2 1.00024H20.8C22.01 1.00024 23 1.90024 23 3.00024V15.0002C23 16.1002 22.01 17.0002 20.8 17.0002H3.2C1.99 17.0002 1 16.1002 1 15.0002V3.00024C1 1.90024 1.99 1.00024 3.2 1.00024Z" stroke="#262626" stroke-width="1.2" stroke-linecap="round" stroke-linejoin="round"/>
<path d="M12 11.0002L11.6201 11.4646C11.8411 11.6455 12.1589 11.6455 12.3799 11.4646L12 11.0002ZM22.6201 1.53587L11.6201 10.5359L12.3799 11.4646L23.3799 2.46462L22.6201 1.53587ZM12.3799 10.5359L1.37994 1.53587L0.620057 2.46462L11.6201 11.4646L12.3799 10.5359Z" fill="#262626"/>
</svg>
