<svg width="26" height="26" viewBox="0 0 26 26" fill="none" xmlns="http://www.w3.org/2000/svg">
<path d="M14 0.678223H16L17.34 7.37322C17.3857 7.60342 17.511 7.8102 17.6938 7.95737C17.8766 8.10454 18.1053 8.18272 18.34 8.17822H23.2C23.4347 8.18272 23.6634 8.10454 23.8462 7.95737C24.029 7.8102 24.1543 7.60342 24.2 7.37322L25 3.17822H16.5" stroke="white" stroke-width="1.2" stroke-linecap="round" stroke-linejoin="round"/>
<path d="M11.6169 3.35449H3C1.89543 3.35449 1 4.24992 1 5.35449V22.5883C1 23.6929 1.89543 24.5883 3 24.5883H20.2338C21.3384 24.5883 22.2338 23.6928 22.2338 22.5883V13.9714" stroke="white" stroke-width="1.2"/>
<path d="M19.0047 11.6942C19.5595 11.6942 20.0093 11.2429 20.0093 10.6862C20.0093 10.1295 19.5595 9.67822 19.0047 9.67822C18.4498 9.67822 18 10.1295 18 10.6862C18 11.2429 18.4498 11.6942 19.0047 11.6942Z" fill="white"/>
<path d="M23.0047 11.6942C23.5595 11.6942 24.0093 11.2429 24.0093 10.6862C24.0093 10.1295 23.5595 9.67822 23.0047 9.67822C22.4498 9.67822 22 10.1295 22 10.6862C22 11.2429 22.4498 11.6942 23.0047 11.6942Z" fill="white"/>
<path d="M11.6169 3.35449H3C1.89543 3.35449 1 4.24992 1 5.35449V22.5883C1 23.6929 1.89543 24.5883 3 24.5883H20.2338C21.3384 24.5883 22.2338 23.6928 22.2338 22.5883V13.9714" stroke="white" stroke-width="1.2"/>
<path d="M16.2195 14.6082H12.845V18.1697H11.3575V14.6082H8V13.2312H11.3575V9.67822H12.845V13.2312H16.2195V14.6082Z" fill="white"/>
</svg>
