<svg width="24" height="27" viewBox="0 0 24 27" fill="none" xmlns="http://www.w3.org/2000/svg">
<path d="M19.6505 11.1144C19.6505 6.90541 16.0381 3.51237 11.6264 3.61188C7.4015 3.71138 3.99671 7.05466 3.98633 11.1044C3.98633 13.194 4.86867 15.0845 6.30117 16.4477C7.53645 17.6218 8.26308 19.194 8.26308 20.8557V22.2487H15.3737V20.9154C15.3737 19.2537 16.0381 17.6417 17.2837 16.4875C18.7474 15.1243 19.6505 13.2238 19.6505 11.1144Z" stroke="white" stroke-miterlimit="10"/>
<path d="M8.63672 24.0896H15" stroke="white" stroke-miterlimit="10"/>
<path d="M8.63672 14.209H15" stroke="white" stroke-miterlimit="10"/>
<path d="M11.8232 14.1493V22.0995" stroke="white" stroke-miterlimit="10"/>
<path d="M9.58105 26H14.055" stroke="white" stroke-miterlimit="10"/>
<path d="M20.1795 3.31348L18.4771 4.94532" stroke="white" stroke-miterlimit="10"/>
<path d="M5.15894 17.7114L3.45654 19.3433" stroke="white" stroke-miterlimit="10"/>
<path d="M3.45654 3.31348L5.15894 4.94532" stroke="white" stroke-miterlimit="10"/>
<path d="M18.4771 17.7114L20.1795 19.3433" stroke="white" stroke-miterlimit="10"/>
<path d="M23.6362 11.3334H21.2383" stroke="white" stroke-miterlimit="10"/>
<path d="M2.39789 11.3334H0" stroke="white" stroke-miterlimit="10"/>
<path d="M11.8232 0V2.29851" stroke="white" stroke-miterlimit="10"/>
</svg>
