<svg width="24" height="24" viewBox="0 0 24 24" fill="none" xmlns="http://www.w3.org/2000/svg">
<path d="M20.8462 9H11.1538C9.96431 9 9 9.96431 9 11.1538V20.8462C9 22.0357 9.96431 23 11.1538 23H20.8462C22.0357 23 23 22.0357 23 20.8462V11.1538C23 9.96431 22.0357 9 20.8462 9Z" stroke="#262626" stroke-width="1.2" stroke-linecap="round" stroke-linejoin="round"/>
<path d="M4.23077 15H3.15385C2.58261 15 2.03477 14.7731 1.63085 14.3692C1.22692 13.9652 1 13.4174 1 12.8462V3.15385C1 2.58261 1.22692 2.03477 1.63085 1.63085C2.03477 1.22692 2.58261 1 3.15385 1H12.8462C13.4174 1 13.9652 1.22692 14.3692 1.63085C14.7731 2.03477 15 2.58261 15 3.15385V4.23077" stroke="#262626" stroke-width="1.2" stroke-linecap="round" stroke-linejoin="round"/>
</svg>
