<svg width="25" height="25" viewBox="0 0 25 25" fill="none" xmlns="http://www.w3.org/2000/svg">
<circle cx="9" cy="9" r="8.4" stroke="#262626" stroke-width="1.2"/>
<path d="M21.2144 23.0715L17.3213 19.1784C16.8085 18.6655 16.8085 17.8341 17.3213 17.3213C17.8341 16.8085 18.6655 16.8085 19.1784 17.3213L23.0715 21.2144C23.5843 21.7272 23.5843 22.5587 23.0715 23.0715C22.5587 23.5843 21.7272 23.5843 21.2144 23.0715Z" fill="#262626"/>
<path d="M17.3213 19.1784L17.7456 18.7541H17.7456L17.3213 19.1784ZM21.2144 23.0715L20.7902 23.4957L21.2144 23.0715ZM23.0715 21.2144L23.4957 20.7902L23.0715 21.2144ZM19.1784 17.3213L18.7541 17.7456L19.1784 17.3213ZM16.897 19.6026L20.7902 23.4957L21.6387 22.6472L17.7456 18.7541L16.897 19.6026ZM23.4957 20.7902L19.6026 16.897L18.7541 17.7456L22.6472 21.6387L23.4957 20.7902ZM17.7456 16.897L15.4243 14.5757L14.5757 15.4243L16.897 17.7456L17.7456 16.897ZM19.6026 16.897C18.8555 16.1499 17.6442 16.1499 16.897 16.897L17.7456 17.7456C18.0241 17.4671 18.4756 17.4671 18.7541 17.7456L19.6026 16.897ZM23.4957 23.4957C24.2429 22.7486 24.2429 21.5373 23.4957 20.7902L22.6472 21.6387C22.9257 21.9172 22.9257 22.3687 22.6472 22.6472L23.4957 23.4957ZM20.7902 23.4957C21.5373 24.2429 22.7486 24.2429 23.4957 23.4957L22.6472 22.6472C22.3687 22.9257 21.9172 22.9257 21.6387 22.6472L20.7902 23.4957ZM17.7456 18.7541C17.4671 18.4756 17.4671 18.0241 17.7456 17.7456L16.897 16.897C16.1499 17.6442 16.1499 18.8555 16.897 19.6026L17.7456 18.7541Z" fill="#262626"/>
</svg>
